Coordinates
version=1
nRows=21
nColumns=22
inDegrees=yes

Units are S.I. units (second, meters, Newtons, ...)
If the header above contains a line with 'inDegrees', this indicates whether rotational values are in degrees (yes) or radians (no).

endheader
time	pelvis_tilt	pelvis_list	pelvis_rotation	pelvis_tx	pelvis_ty	pelvis_tz	hip_flexion_r	hip_adduction_r	hip_rotation_r	knee_angle_r	ankle_angle_r	subtalar_angle_r	hip_flexion_l	hip_adduction_l	hip_rotation_l	knee_angle_l	ankle_angle_l	subtalar_angle_l	lumbar_extension	lumbar_bending	lumbar_rotation
      2.82000000	      3.23566460	      0.25692418	     17.18370964	     -0.35587158	      0.90014395	      0.66165237	     21.81231929	     -2.94184774	     -0.12315026	     -3.39623139	     -3.08808469	     13.96114821	    -11.60148682	      2.72764479	      0.35825427	    -21.71617285	     19.08291925	     -9.27542598	     -9.77114352	     -2.89485358	     -7.02283415
      2.83000000	      3.38847027	      0.27394934	     17.72329490	     -0.34503832	      0.89848568	      0.65926598	     21.91558973	     -2.94732307	      0.31513348	     -4.23675609	     -2.86517178	     14.07101361	    -12.25357305	      2.47197348	      0.69218083	    -22.23062340	     19.00550293	     -9.24741060	     -9.88349689	     -2.88255379	     -7.10391598
      2.84000000	      3.57124041	      0.23392366	     18.21214432	     -0.33405887	      0.89696965	      0.65691424	     22.07684280	     -2.85995833	      0.82880947	     -5.55571290	     -2.78874556	     14.05507395	    -12.86061899	      2.14761007	      1.01190712	    -22.86314003	     18.82262594	     -9.24341245	    -10.00443686	     -2.79269885	     -7.12682551
      2.85000000	      3.77733270	      0.12722758	     18.66631412	     -0.32279875	      0.89560268	      0.65457859	     22.25416260	     -2.66123743	      1.40770212	     -7.21014338	     -2.71464422	     13.90306988	    -13.45742502	      1.75250089	      1.37807097	    -23.53534973	     18.49130975	     -9.25731352	    -10.09818295	     -2.61727222	     -7.15194849
      2.86000000	      3.98603260	     -0.06206997	     19.06904861	     -0.31131438	      0.89434737	      0.65232472	     22.45240032	     -2.32501774	      2.01268193	     -9.05590616	     -2.83920777	     13.68164675	    -13.95810472	      1.27380788	      1.65443029	    -24.35357522	     18.03996329	     -9.31469324	    -10.14714912	     -2.35422059	     -7.12419871
      2.87000000	      4.18182405	     -0.34996619	     19.42941940	     -0.29958798	      0.89319350	      0.65016200	     22.65976924	     -1.83981762	      2.61138921	    -10.96068781	     -3.11277836	     13.37324731	    -14.33327750	      0.70221317	      1.82676479	    -25.32939738	     17.46429697	     -9.43233597	    -10.12401505	     -1.99555278	     -7.05292917
      2.88000000	      4.37113808	     -0.71982840	     19.75042400	     -0.28767143	      0.89217662	      0.64808901	     22.86687469	     -1.22773766	      3.12055559	    -12.85691170	     -3.54122005	     13.02598177	    -14.57541767	      0.05534252	      1.87525986	    -26.48700053	     16.75652687	     -9.61321366	    -10.04890617	     -1.55985542	     -6.93257846
      2.89000000	      4.55604570	     -1.18384936	     20.03730561	     -0.27553459	      0.89132624	      0.64606536	     23.07148781	     -0.49168358	      3.49764363	    -14.70324855	     -4.04991870	     12.68717074	    -14.68822705	     -0.68432782	      1.75318541	    -27.80300558	     15.83348328	     -9.83720878	     -9.91067356	     -1.02502623	     -6.79787429
      2.90000000	      4.73990157	     -1.72281463	     20.28914406	     -0.26325175	      0.89065509	      0.64408292	     23.27576419	      0.33578953	      3.70998317	    -16.48610967	     -4.59578169	     12.34020474	    -14.65090111	     -1.49545876	      1.46391892	    -29.32012368	     14.68358508	    -10.07964117	     -9.72798549	     -0.41477053	     -6.62201624
      2.91000000	      4.92763617	     -2.31522637	     20.51171113	     -0.25087884	      0.89018659	      0.64211492	     23.46988202	      1.21638127	      3.74961340	    -18.20327133	     -5.10510916	     12.00188209	    -14.46019113	     -2.36327609	      1.01862396	    -31.04538696	     13.27218360	    -10.30586990	     -9.52199771	      0.24913329	     -6.39990416
      2.92000000	      5.09042584	     -2.92234237	     20.70182716	     -0.23848690	      0.88986639	      0.64010366	     23.70155285	      2.08263015	      3.58171517	    -19.91958101	     -5.49220301	     11.56866094	    -14.09219036	     -3.23978702	      0.42265109	    -32.97332730	     11.65499068	    -10.52577906	     -9.27945146	      0.92284938	     -6.15011248
      2.93000000	      5.30259009	     -3.53629121	     20.87561834	     -0.22613096	      0.88982181	      0.63802812	     23.82192779	      2.94657774	      3.31364332	    -21.51178334	     -5.74372425	     11.26373281	    -13.61216077	     -4.15892910	     -0.29932131	    -35.10369992	      9.77617847	    -10.62251595	     -9.09266743	      1.62786098	     -5.88280949
      2.94000000	      5.52199821	     -4.13684952	     21.04057350	     -0.21387923	      0.88997105	      0.63585113	     23.87573465	      3.75985193	      2.90434811	    -23.00283564	     -5.77928119	     10.93194913	    -12.98098665	     -5.08277510	     -1.06638832	    -37.42342800	      7.70552481	    -10.62046427	     -8.92624479	      2.32710089	     -5.56727121
      2.95000000	      5.77047953	     -4.71247100	     21.20738338	     -0.20177248	      0.89033856	      0.63358278	     23.80850390	      4.52190234	      2.39076774	    -24.34421868	     -5.60093201	     10.58007269	    -12.22951344	     -6.01470826	     -1.83040729	    -39.90577542	      5.49973278	    -10.49124292	     -8.81133347	      3.01301266	     -5.21263794
      2.96000000	      6.05183253	     -5.25765997	     21.38733985	     -0.18987617	      0.89091106	      0.63120802	     23.59141160	      5.23216581	      1.81664370	    -25.48990310	     -5.21977706	     10.18832701	    -11.36530210	     -6.94336676	     -2.51809821	    -42.53409241	      3.23610876	    -10.22785921	     -8.75870196	      3.68355195	     -4.80552743
      2.97000000	      6.37573448	     -5.76344293	     21.58172456	     -0.17822939	      0.89168420	      0.62877598	     23.20852043	      5.90448491	      1.25215731	    -26.42953248	     -4.70193347	      9.81714100	    -10.40908523	     -7.86192926	     -3.10168941	    -45.28294449	      0.99008514	     -9.88358623	     -8.78678339	      4.32718979	     -4.37969412
      2.98000000	      6.71851841	     -6.22020470	     21.79718230	     -0.16687480	      0.89260995	      0.62625065	     22.68547198	      6.52459017	      0.71962509	    -27.17203394	     -4.06142030	      9.44989293	     -9.34963045	     -8.72624610	     -3.51145241	    -48.12089285	     -1.17340317	     -9.46911598	     -8.87293341	      4.92950844	     -3.90243757
      2.99000000	      7.06118724	     -6.61834553	     22.03763559	     -0.15584309	      0.89365771	      0.62364218	     22.04799389	      7.08321410	      0.24126635	    -27.72987803	     -3.33183824	      9.08893819	     -8.17892071	     -9.49880623	     -3.71144461	    -51.01378692	     -3.19951562	     -8.97066322	     -9.00097588	      5.46648396	     -3.36142304
      3.00000000	      7.39048809	     -6.94004028	     22.30549023	     -0.14516256	      0.89481186	      0.62093198	     21.32024307	      7.56423819	     -0.14901491	    -28.13394200	     -2.54967486	      8.77080100	     -6.90159376	    -10.14453175	     -3.71928831	    -53.91438451	     -5.07002673	     -8.38365666	     -9.16286078	      5.91908340	     -2.78660375
      3.01000000	      7.68837548	     -7.17574658	     22.60017322	     -0.13485411	      0.89603737	      0.61812695	     20.54628694	      7.95232564	     -0.45869013	    -28.43464638	     -1.73682885	      8.50028894	     -5.51839709	    -10.63707586	     -3.56104694	    -56.77184835	     -6.76366736	     -7.67016634	     -9.34506874	      6.26827805	     -2.19454733
      3.02000000	      7.94997504	     -7.33448445	     22.93724962	     -0.12492421	      0.89734675	      0.61519514	     19.73290897	      8.24879935	     -0.70539868	    -28.62069391	     -0.95201926	      8.31000983	     -4.03709663	    -10.97116589	     -3.24818593	    -59.52482916	     -8.28582342	     -6.92896139	     -9.53230541	      6.52256382	     -1.57998950
